<?xml version="1.0" encoding="utf-8"?><!-- Uploaded to: SVG Repo, www.svgrepo.com, Generator: SVG Repo Mixer Tools -->
<svg fill="#000000" width="800px" height="800px" viewBox="0 0 24 24" id="add-file-6" data-name="Flat Line" xmlns="http://www.w3.org/2000/svg" class="icon flat-line"><path id="secondary" d="M11.5,19A6.5,6.5,0,0,1,18,12.5V7L14,3H5A1,1,0,0,0,4,4V20a1,1,0,0,0,1,1h6.82A6.3,6.3,0,0,1,11.5,19Z" style="fill: rgb(44, 169, 188); stroke-width: 2;"></path><path id="primary" d="M16,19h4m-2-2v4M8,13h2m4-4H8" style="fill: none; stroke: rgb(0, 0, 0); stroke-linecap: round; stroke-linejoin: round; stroke-width: 2;"></path><path id="primary-2" data-name="primary" d="M12,21H5a1,1,0,0,1-1-1V4A1,1,0,0,1,5,3h9l4,4v6" style="fill: none; stroke: rgb(0, 0, 0); stroke-linecap: round; stroke-linejoin: round; stroke-width: 2;"></path></svg>