<?xml version="1.0" encoding="utf-8"?><!-- Uploaded to: SVG Repo, www.svgrepo.com, Generator: SVG Repo Mixer Tools -->
<svg fill="#000000" width="800px" height="800px" viewBox="0 0 24 24" id="file-remove" data-name="Flat Line" xmlns="http://www.w3.org/2000/svg" class="icon flat-line"><path id="secondary" d="M17,7.41v4.26A8.07,8.07,0,0,0,9.23,20H3.93A1,1,0,0,1,3,19V4a1,1,0,0,1,.93-1h9a.92.92,0,0,1,.66.29l3.19,3.42A1,1,0,0,1,17,7.41Z" style="fill: rgb(44, 169, 188); stroke-width: 2;"></path><line id="primary" x1="20" y1="18" x2="14" y2="18" style="fill: none; stroke: rgb(0, 0, 0); stroke-linecap: round; stroke-linejoin: round; stroke-width: 2;"></line><path id="primary-2" data-name="primary" d="M10,20H4a1,1,0,0,1-1-1V4A1,1,0,0,1,4,3h8.59a1,1,0,0,1,.7.29l3.42,3.42a1,1,0,0,1,.29.7V12" style="fill: none; stroke: rgb(0, 0, 0); stroke-linecap: round; stroke-linejoin: round; stroke-width: 2;"></path></svg>